<?xml version="1.0" encoding="utf-8"?>
<svg version="1.1" id="Camada_1" xmlns="http://www.w3.org/2000/svg" xmlns:xlink="http://www.w3.org/1999/xlink" x="0px" y="0px"
	 viewBox="0 0 120 120" style="enable-background:new 0 0 120 120;" xml:space="preserve">
<style type="text/css">
	.st0{fill:#E51313;}
	.st1{fill:#999999;}
</style>
<path class="st0" d="M31.6,36.6H15.1c-2.8,0-5-2.3-5-5V15.1c0-2.8,2.3-5,5-5h16.5c2.7,0,5,2.3,5,5v16.5
	C36.6,34.4,34.4,36.6,31.6,36.6z"/>
<path class="st1" d="M68.3,36.6H51.8c-2.8,0-5-2.3-5-5V15.1c0-2.8,2.3-5,5-5h16.5c2.8,0,5,2.3,5,5v16.5C73.3,34.4,71,36.6,68.3,36.6
	z"/>
<path class="st0" d="M104.9,36.6H88.4c-2.8,0-5-2.3-5-5V15.1c0-2.8,2.3-5,5-5h16.5c2.8,0,5,2.3,5,5v16.5
	C109.9,34.4,107.6,36.6,104.9,36.6z"/>
<path class="st0" d="M31.6,73.3H15.1c-2.8,0-5-2.3-5-5V51.8c0-2.8,2.3-5,5-5h16.5c2.7,0,5,2.3,5,5v16.5C36.6,71,34.4,73.3,31.6,73.3
	z"/>
<path class="st1" d="M68.3,73.3H51.8c-2.8,0-5-2.3-5-5V51.8c0-2.8,2.3-5,5-5h16.5c2.8,0,5,2.3,5,5v16.5C73.3,71,71,73.3,68.3,73.3z"
	/>
<path class="st0" d="M104.9,73.3H88.4c-2.8,0-5-2.3-5-5V51.8c0-2.8,2.3-5,5-5h16.5c2.8,0,5,2.3,5,5v16.5
	C109.9,71,107.6,73.3,104.9,73.3z"/>
<path class="st1" d="M31.6,109.9H15.1c-2.8,0-5-2.3-5-5V88.4c0-2.8,2.3-5,5-5h16.5c2.7,0,5,2.3,5,5v16.5
	C36.6,107.6,34.4,109.9,31.6,109.9z"/>
<path class="st0" d="M68.3,109.9H51.8c-2.8,0-5-2.3-5-5V88.4c0-2.8,2.3-5,5-5h16.5c2.8,0,5,2.3,5,5v16.5
	C73.3,107.6,71,109.9,68.3,109.9z"/>
<path class="st1" d="M104.9,109.9H88.4c-2.8,0-5-2.3-5-5V88.4c0-2.8,2.3-5,5-5h16.5c2.8,0,5,2.3,5,5v16.5
	C109.9,107.6,107.6,109.9,104.9,109.9z"/>
</svg>
